HIERARCHY
ROOT root
{
	OFFSET	0	13.1	24.9
	CHANNELS 6  Xposition Yposition Zposition Xrotation Yrotation Zrotation
	JOINT spine_1
	{
		OFFSET	0	9.99999	0
		CHANNELS 3  Xrotation Yrotation Zrotation
		JOINT spine_2
		{
			OFFSET	0	112	-10
			CHANNELS 3  Xrotation Yrotation Zrotation
			JOINT spine_3
			{
				OFFSET	0	206.5	19.3
				CHANNELS 3  Xrotation Yrotation Zrotation
				JOINT spine_4
				{
					OFFSET	0	110.4	14.6
					CHANNELS 3  Xrotation Yrotation Zrotation
					JOINT neck_1
					{
						OFFSET	0	71.8	-50.3
						CHANNELS 3  Xrotation Yrotation Zrotation
						JOINT neck_2
						{
							OFFSET	0	86.2	-25.8
							CHANNELS 3  Xrotation Yrotation Zrotation
							JOINT head_ee
							{
								OFFSET	0	179.8	-8.7
								CHANNELS 3  Xrotation Yrotation Zrotation
								End Site
								{
									OFFSET	1	0	0
								}
							}
						}
					}
					JOINT left_clavicle
					{
						OFFSET	-43.2	22.4	-70.8
						CHANNELS 3  Xrotation Yrotation Zrotation
						JOINT left_shoulder
						{
							OFFSET	-93.9	-5.79999	48.7
							CHANNELS 3  Xrotation Yrotation Zrotation
							JOINT left_elbow
							{
								OFFSET	-291.4	-30.8	15.2
								CHANNELS 3  Xrotation Yrotation Zrotation
								JOINT left_lowarm_twist
								{
									OFFSET	-110.7	-3.89999	13.6
									CHANNELS 3  Xrotation Yrotation Zrotation
									JOINT left_hand
									{
										OFFSET	-110.7	-3.89999	13.6
										CHANNELS 3  Xrotation Yrotation Zrotation
										JOINT left_ee
										{
											OFFSET	-80.8	-5.10001	12.1
											CHANNELS 3  Xrotation Yrotation Zrotation
											End Site
											{
												OFFSET	1	0	0
											}
										}
									}
								}
							}
						}
					}
					JOINT right_clavicle
					{
						OFFSET	43.2	22.4	-70.8
						CHANNELS 3  Xrotation Yrotation Zrotation
						JOINT right_shoulder
						{
							OFFSET	93.9	-5.79999	48.7
							CHANNELS 3  Xrotation Yrotation Zrotation
							JOINT right_elbow
							{
								OFFSET	291.4	-30.8	15.2
								CHANNELS 3  Xrotation Yrotation Zrotation
								JOINT right_lowarm_twist
								{
									OFFSET	110.7	-3.89999	13.6
									CHANNELS 3  Xrotation Yrotation Zrotation
									JOINT right_hand
									{
										OFFSET	110.7	-3.89999	13.6
										CHANNELS 3  Xrotation Yrotation Zrotation
										JOINT right_ee
										{
											OFFSET	80.8	-5.10001	12.1
											CHANNELS 3  Xrotation Yrotation Zrotation
											End Site
											{
												OFFSET	1	0	0
											}
										}
									}
								}
							}
						}
					}
				}
			}
		}
	}
	JOINT left_hip
	{
		OFFSET	-82.8	-127.5	0.300001
		CHANNELS 3  Xrotation Yrotation Zrotation
		JOINT left_knee
		{
			OFFSET	-28.2	-396.7	2.2
			CHANNELS 3  Xrotation Yrotation Zrotation
			JOINT left_ankle
			{
				OFFSET	-11.7	-411.3	35.4
				CHANNELS 3  Xrotation Yrotation Zrotation
				JOINT left_toes
				{
					OFFSET	0	-60	-88.6
					CHANNELS 3  Xrotation Yrotation Zrotation
					JOINT left_foot_ee
					{
						OFFSET	-22.5	-16.5	-42.2
						CHANNELS 3  Xrotation Yrotation Zrotation
						End Site
						{
							OFFSET	1	0	0
						}
					}
				}
			}
		}
	}
	JOINT right_hip
	{
		OFFSET	82.8	-127.5	0.300001
		CHANNELS 3  Xrotation Yrotation Zrotation
		JOINT right_knee
		{
			OFFSET	28.2	-396.7	2.2
			CHANNELS 3  Xrotation Yrotation Zrotation
			JOINT right_ankle
			{
				OFFSET	11.7	-411.3	35.4
				CHANNELS 3  Xrotation Yrotation Zrotation
				JOINT right_toes
				{
					OFFSET	0	-60	-88.6
					CHANNELS 3  Xrotation Yrotation Zrotation
					JOINT right_foot_ee
					{
						OFFSET	22.5	-16.5	-42.2
						CHANNELS 3  Xrotation Yrotation Zrotation
						End Site
						{
							OFFSET	1	0	0
						}
					}
				}
			}
		}
	}
}
MOTION
Frames: 9
Frame Time: 0.02
1974.78 713.785 -1266.68 -22.869 42.9667 19.7704 6.81469 0.12143 0.927545 6.81517 0.0621649 0.933392 6.81553 -0.0245982 0.935136 6.81433 0.123391 0.927287 -10.5559 5.95792 -11.7753 -10.2623 19.087 -9.98383 -0.0 0.0 -0.0 1.22742 11.9447 3.46999 -3.85189 -15.9445 55.1621 2.22991 -47.8397 0.989182 -31.3018 -2.07712 3.36859 0.722984 -15.2937 -1.65032 -0.0 0.0 -0.0 7.19809 8.27068 -13.8682 -32.9405 30.181 -70.808 0.482768 13.4498 -0.0569253 -23.0451 1.3537 -2.59726 1.48214 -4.36697 -11.673 0.0 0.0 0.0 8.7802 28.0791 -0.591385 -11.9881 0.305064 1.81112 39.0646 16.6485 -4.87411 7.69219 -0.0 -0.0 -0.0 0.0 -0.0 46.0507 -5.58899 -13.45 -3.26618 -0.120632 -0.486673 21.5102 15.96 3.16564 6.06126 -0.0 -0.0 0.0 0.0 0.0 
1955.57 707.864 -1277.22 -21.1661 43.1871 18.3433 6.70725 0.121736 0.88609 6.70768 0.0651073 0.89204 6.70811 -0.0195124 0.8942 6.70702 0.121949 0.886061 -10.4083 5.83295 -12.8132 -10.0346 19.5714 -11.077 -0.0 0.0 -0.0 0.999897 12.1428 3.10659 -6.31205 -16.1606 55.6984 2.16436 -46.9884 0.940918 -31.7029 -2.11505 3.40336 0.683718 -15.3898 -1.95535 -0.0 0.0 -0.0 7.13671 7.98923 -13.7482 -32.0717 30.162 -70.4333 0.542735 15.0486 -0.071687 -22.8997 1.34199 -2.58278 1.4809 -3.47932 -11.3205 0.0 0.0 0.0 7.94443 27.9982 -1.25716 -15.6754 0.322069 2.37651 40.6946 16.5676 -5.02066 7.56385 -0.0 -0.0 -0.0 0.0 -0.0 44.4068 -5.38351 -12.9479 -5.94684 -0.198769 -0.890612 21.4126 17.7286 3.19607 7.22907 -0.0 -0.0 0.0 0.0 0.0 
1937.35 705.584 -1283.93 -20.949 43.9284 17.9555 6.54556 0.216531 0.855366 6.54595 0.161665 0.867409 6.54788 0.0764943 0.879023 6.54686 0.214354 0.855913 -10.3505 5.06487 -13.4291 -9.91391 18.556 -11.895 -0.0 0.0 -0.0 0.941703 12.8216 3.07256 -8.10625 -16.0433 56.715 2.09276 -46.0265 0.888975 -32.9426 -2.23377 3.50912 0.959664 -15.2506 -0.0445163 -0.0 0.0 -0.0 7.76846 8.64684 -15.0601 -31.068 30.3176 -68.4211 0.580798 16.0512 -0.0818912 -22.8501 1.338 -2.57783 1.80428 -2.75816 -13.2331 0.0 0.0 0.0 7.98364 26.7595 -1.58344 -19.6029 0.300152 2.9786 41.6997 14.876 -5.08018 7.97403 -0.0 -0.0 -0.0 0.0 -0.0 44.524 -5.35704 -11.8023 -9.36056 -0.270769 -1.40944 23.7179 18.7936 3.52444 8.85025 -0.0 -0.0 0.0 0.0 0.0 
1919.56 708.395 -1295.56 -20.1336 44.0237 17.4356 6.38643 0.230025 0.917326 6.38688 0.171189 0.930103 6.38908 0.0772628 0.942563 6.38791 0.225147 0.918535 -10.4548 4.92243 -13.7503 -9.99596 18.4869 -12.2314 -0.0 0.0 -0.0 0.943412 13.7617 3.1623 -9.53822 -15.3932 57.2502 1.95195 -44.0323 0.789345 -33.2446 -2.26304 3.53449 0.995723 -14.7761 0.404451 -0.0 0.0 -0.0 8.03664 8.15572 -15.6401 -30.3267 30.5061 -67.5948 0.613344 16.9006 -0.091122 -22.7963 1.33368 -2.57246 1.8512 -2.24096 -13.3518 0.0 0.0 0.0 8.45069 26.0454 -2.68019 -21.467 0.27532 3.26354 41.2453 14.1789 -5.03044 7.88516 -0.0 -0.0 -0.0 0.0 -0.0 44.2923 -5.46406 -11.2253 -12.7984 -0.31192 -1.93525 23.357 19.3257 3.49376 9.50583 -0.0 -0.0 0.0 0.0 0.0 
1903.03 710.747 -1307.8 -19.9078 44.7085 17.7625 6.19827 0.253821 0.868042 6.19867 0.198073 0.882432 6.20122 0.10584 0.898173 6.20018 0.246356 0.87019 -10.4492 4.65986 -14.3397 -9.93888 18.3933 -12.8866 -0.0 0.0 -0.0 0.803641 14.8833 3.04062 -10.9801 -15.6328 58.1655 1.90874 -43.3918 0.75948 -33.5477 -2.29254 3.5598 1.05218 -14.861 0.746255 -0.0 0.0 -0.0 8.51611 8.30963 -16.6555 -29.6894 30.6401 -66.813 0.644402 17.7041 -0.100359 -22.8054 1.3344 -2.57337 1.94376 -1.84818 -13.8317 0.0 0.0 0.0 8.59421 25.4834 -3.58419 -22.7943 0.251996 3.46587 41.8494 13.546 -5.0735 7.92023 -0.0 -0.0 -0.0 0.0 -0.0 44.1592 -5.56508 -10.8486 -14.2165 -0.319691 -2.15269 23.2712 19.6779 3.49322 10.0041 -0.0 -0.0 0.0 0.0 0.0 
1886.35 717.428 -1324.37 -19.7253 44.7524 17.6283 6.06459 0.324918 0.840645 6.06494 0.270769 0.859615 6.06856 0.178468 0.883402 6.06761 0.31574 0.844134 -9.80435 5.06443 -12.5591 -9.40704 18.0554 -11.1278 -0.0 0.0 -0.0 0.71518 15.0834 2.91803 -12.7118 -14.7988 58.9073 1.58284 -38.097 0.546547 -33.6602 -2.30353 3.56916 0.998844 -13.5005 0.981139 -0.0 0.0 -0.0 8.75826 7.82251 -17.179 -28.9703 30.8656 -67.1544 0.665914 18.2565 -0.107 -22.773 1.33181 -2.57013 1.80318 -1.72842 -12.823 0.0 0.0 0.0 9.49518 23.2516 -4.60478 -23.9607 0.227631 3.64321 39.9022 13.4869 -4.90288 7.91971 -0.0 -0.0 -0.0 0.0 -0.0 43.1827 -5.65682 -10.8287 -16.1022 -0.321687 -2.44199 21.3778 19.1372 3.22884 10.6004 -0.0 -0.0 0.0 0.0 0.0 
1868.24 722.124 -1337.38 -20.1609 45.692 17.922 6.14571 0.209332 0.83476 6.14609 0.155792 0.846388 6.14794 0.066706 0.858017 6.14696 0.201372 0.836716 -9.79111 4.74151 -13.1246 -9.34741 17.8397 -11.7736 -0.0 0.0 -0.0 0.655904 15.7408 2.88751 -14.3763 -14.0847 59.5135 1.2769 -32.3136 0.369945 -33.8485 -2.32196 3.58477 1.01945 -13.3036 1.20539 -0.0 0.0 -0.0 9.01548 7.61852 -17.73 -27.7468 31.144 -67.1929 0.69068 18.8881 -0.114888 -22.7526 1.33016 -2.56809 1.75227 -1.67489 -12.4547 0.0 0.0 0.0 10.8456 21.5621 -5.63515 -24.9933 0.203052 3.79976 40.3956 13.1768 -4.94275 7.88636 -0.0 -0.0 -0.0 0.0 -0.0 42.0662 -5.7099 -10.0302 -17.8928 -0.314768 -2.71662 20.0336 19.1637 3.04887 11.0641 -0.0 -0.0 0.0 0.0 0.0 
1848.4 724.841 -1351.1 -20.9677 45.105 18.7869 6.42646 0.426693 0.84457 6.42678 0.372088 0.870008 6.43198 0.283867 0.902651 6.43109 0.422856 0.846497 -10.1317 5.15423 -12.555 -9.7504 18.1688 -11.0415 -0.0 0.0 -0.0 0.616493 16.2238 2.87263 -15.8716 -13.5544 60.1801 1.08852 -28.3338 0.274777 -34.1131 -2.34795 3.60661 1.0809 -12.9321 1.78055 -0.0 0.0 -0.0 9.53077 7.55239 -18.8347 -26.9772 31.3042 -65.7344 0.709125 19.3554 -0.12093 -22.7012 1.32605 -2.56295 1.68036 -1.61453 -11.9411 0.0 0.0 0.0 12.4543 20.3604 -6.26409 -25.6209 0.186737 3.89468 39.945 13.0309 -4.90106 7.92956 -0.0 -0.0 -0.0 0.0 -0.0 40.9751 -5.4894 -10.5391 -18.5078 -0.310413 -2.81088 18.8524 18.4615 2.87 11.0675 -0.0 -0.0 0.0 0.0 0.0 
1831.32 729.184 -1362.08 -20.4891 44.8819 18.8154 6.35119 0.49464 0.805947 6.35144 0.442355 0.835787 6.35752 0.356054 0.876036 6.35678 0.489935 0.808816 -10.3721 5.28175 -12.1573 -10.031 18.1017 -10.5696 -0.0 0.0 -0.0 0.414959 17.0343 2.63984 -17.6111 -12.9007 60.9287 0.890883 -23.8124 0.187843 -34.3319 -2.36952 3.62458 1.1244 -12.3496 2.32683 -0.0 0.0 -0.0 9.98301 7.3035 -19.8094 -25.8624 31.5139 -65.088 0.714887 19.5008 -0.122847 -22.6999 1.32594 -2.56282 1.57854 -1.69906 -11.2826 0.0 0.0 0.0 13.8752 19.0073 -6.58316 -27.558 0.129827 4.1865 39.7228 13.0418 -4.88136 7.97173 -0.0 -0.0 -0.0 0.0 -0.0 39.1661 -5.28351 -11.2528 -19.2377 -0.303929 -2.9227 17.4842 17.6251 2.66197 11.0496 -0.0 -0.0 0.0 0.0 0.0 
